<svg width="398" height="61" viewBox="0 0 398 61" fill="none" xmlns="http://www.w3.org/2000/svg">
<path d="M37.52 3.84V14.8H14.64V26.64H31.76V37.28H14.64V60H0.96V3.84H37.52ZM41.99 37.6C41.99 33.0133 42.8433 28.9867 44.55 25.52C46.31 22.0533 48.6833 19.3867 51.67 17.52C54.6567 15.6533 57.99 14.72 61.67 14.72C64.8167 14.72 67.5633 15.36 69.91 16.64C72.31 17.92 74.15 19.6 75.43 21.68V15.36H89.11V60H75.43V53.68C74.0967 55.76 72.23 57.44 69.83 58.72C67.4833 60 64.7367 60.64 61.59 60.64C57.9633 60.64 54.6567 59.7067 51.67 57.84C48.6833 55.92 46.31 53.2267 44.55 49.76C42.8433 46.24 41.99 42.1867 41.99 37.6ZM75.43 37.68C75.43 34.2667 74.47 31.5733 72.55 29.6C70.6833 27.6267 68.39 26.64 65.67 26.64C62.95 26.64 60.63 27.6267 58.71 29.6C56.8433 31.52 55.91 34.1867 55.91 37.6C55.91 41.0133 56.8433 43.7333 58.71 45.76C60.63 47.7333 62.95 48.72 65.67 48.72C68.39 48.72 70.6833 47.7333 72.55 45.76C74.47 43.7867 75.43 41.0933 75.43 37.68ZM96.2869 37.68C96.2869 33.04 97.2202 28.9867 99.0869 25.52C101.007 22.0533 103.647 19.3867 107.007 17.52C110.42 15.6533 114.314 14.72 118.687 14.72C124.287 14.72 128.954 16.1867 132.687 19.12C136.474 22.0533 138.954 26.1867 140.127 31.52H125.567C124.34 28.1067 121.967 26.4 118.447 26.4C115.94 26.4 113.94 27.3867 112.447 29.36C110.954 31.28 110.207 34.0533 110.207 37.68C110.207 41.3067 110.954 44.1067 112.447 46.08C113.94 48 115.94 48.96 118.447 48.96C121.967 48.96 124.34 47.2533 125.567 43.84H140.127C138.954 49.0667 136.474 53.1733 132.687 56.16C128.9 59.1467 124.234 60.64 118.687 60.64C114.314 60.64 110.42 59.7067 107.007 57.84C103.647 55.9733 101.007 53.3067 99.0869 49.84C97.2202 46.3733 96.2869 42.32 96.2869 37.68ZM189.524 36.96C189.524 38.24 189.444 39.5733 189.284 40.96H158.324C158.538 43.7333 159.418 45.8667 160.964 47.36C162.564 48.8 164.511 49.52 166.804 49.52C170.218 49.52 172.591 48.08 173.924 45.2H188.484C187.738 48.1333 186.378 50.7733 184.404 53.12C182.484 55.4667 180.058 57.3067 177.124 58.64C174.191 59.9733 170.911 60.64 167.284 60.64C162.911 60.64 159.018 59.7067 155.604 57.84C152.191 55.9733 149.524 53.3067 147.604 49.84C145.684 46.3733 144.724 42.32 144.724 37.68C144.724 33.04 145.658 28.9867 147.524 25.52C149.444 22.0533 152.111 19.3867 155.524 17.52C158.938 15.6533 162.858 14.72 167.284 14.72C171.604 14.72 175.444 15.6267 178.804 17.44C182.164 19.2533 184.778 21.84 186.644 25.2C188.564 28.56 189.524 32.48 189.524 36.96ZM175.524 33.36C175.524 31.0133 174.724 29.1467 173.124 27.76C171.524 26.3733 169.524 25.68 167.124 25.68C164.831 25.68 162.884 26.3467 161.284 27.68C159.738 29.0133 158.778 30.9067 158.404 33.36H175.524ZM210.421 21.68C211.701 19.6 213.541 17.92 215.941 16.64C218.341 15.36 221.088 14.72 224.181 14.72C227.861 14.72 231.195 15.6533 234.181 17.52C237.168 19.3867 239.515 22.0533 241.221 25.52C242.981 28.9867 243.861 33.0133 243.861 37.6C243.861 42.1867 242.981 46.24 241.221 49.76C239.515 53.2267 237.168 55.92 234.181 57.84C231.195 59.7067 227.861 60.64 224.181 60.64C221.035 60.64 218.288 60.0267 215.941 58.8C213.595 57.52 211.755 55.84 210.421 53.76V60H196.741V0.799999H210.421V21.68ZM229.941 37.6C229.941 34.1867 228.981 31.52 227.061 29.6C225.195 27.6267 222.875 26.64 220.101 26.64C217.381 26.64 215.061 27.6267 213.141 29.6C211.275 31.5733 210.341 34.2667 210.341 37.68C210.341 41.0933 211.275 43.7867 213.141 45.76C215.061 47.7333 217.381 48.72 220.101 48.72C222.821 48.72 225.141 47.7333 227.061 45.76C228.981 43.7333 229.941 41.0133 229.941 37.6ZM271.358 60.64C266.985 60.64 263.038 59.7067 259.518 57.84C256.051 55.9733 253.305 53.3067 251.278 49.84C249.305 46.3733 248.318 42.32 248.318 37.68C248.318 33.0933 249.331 29.0667 251.358 25.6C253.385 22.08 256.158 19.3867 259.678 17.52C263.198 15.6533 267.145 14.72 271.518 14.72C275.891 14.72 279.838 15.6533 283.358 17.52C286.878 19.3867 289.651 22.08 291.678 25.6C293.705 29.0667 294.718 33.0933 294.718 37.68C294.718 42.2667 293.678 46.32 291.598 49.84C289.571 53.3067 286.771 55.9733 283.198 57.84C279.678 59.7067 275.731 60.64 271.358 60.64ZM271.358 48.8C273.971 48.8 276.185 47.84 277.998 45.92C279.865 44 280.798 41.2533 280.798 37.68C280.798 34.1067 279.891 31.36 278.078 29.44C276.318 27.52 274.131 26.56 271.518 26.56C268.851 26.56 266.638 27.52 264.878 29.44C263.118 31.3067 262.238 34.0533 262.238 37.68C262.238 41.2533 263.091 44 264.798 45.92C266.558 47.84 268.745 48.8 271.358 48.8ZM322.296 60.64C317.922 60.64 313.976 59.7067 310.456 57.84C306.989 55.9733 304.242 53.3067 302.216 49.84C300.242 46.3733 299.256 42.32 299.256 37.68C299.256 33.0933 300.269 29.0667 302.296 25.6C304.322 22.08 307.096 19.3867 310.616 17.52C314.136 15.6533 318.082 14.72 322.456 14.72C326.829 14.72 330.776 15.6533 334.296 17.52C337.816 19.3867 340.589 22.08 342.616 25.6C344.642 29.0667 345.656 33.0933 345.656 37.68C345.656 42.2667 344.616 46.32 342.536 49.84C340.509 53.3067 337.709 55.9733 334.136 57.84C330.616 59.7067 326.669 60.64 322.296 60.64ZM322.296 48.8C324.909 48.8 327.122 47.84 328.936 45.92C330.802 44 331.736 41.2533 331.736 37.68C331.736 34.1067 330.829 31.36 329.016 29.44C327.256 27.52 325.069 26.56 322.456 26.56C319.789 26.56 317.576 27.52 315.816 29.44C314.056 31.3067 313.176 34.0533 313.176 37.68C313.176 41.2533 314.029 44 315.736 45.92C317.496 47.84 319.682 48.8 322.296 48.8ZM380.193 60L366.593 41.28V60H352.913V0.799999H366.593V33.52L380.113 15.36H396.993L378.433 37.76L397.153 60H380.193Z" fill="#1A74E4"/>
</svg>
