<svg width="120" height="120" viewBox="0 0 120 120" fill="none" xmlns="http://www.w3.org/2000/svg">
<path d="M0 60C0 26.8629 26.8629 0 60 0V0C93.1371 0 120 26.8629 120 60V60C120 93.1371 93.1371 120 60 120V120C26.8629 120 0 93.1371 0 60V60Z" fill="#1877F2"/>
<path d="M83.3555 77.3438L86.0156 60H69.375V48.75C69.375 44.0039 71.6953 39.375 79.1484 39.375H86.7188V24.6094C86.7188 24.6094 79.8516 23.4375 73.2891 23.4375C59.5781 23.4375 50.625 31.7461 50.625 46.7813V60H35.3906V77.3438H50.625V119.273C53.6836 119.754 56.8125 120 60 120C63.1875 120 66.3164 119.754 69.375 119.273V77.3438H83.3555Z" fill="white"/>
</svg>
