<svg width="100" height="100" viewBox="0 0 100 100" fill="none" xmlns="http://www.w3.org/2000/svg">
<path fill-rule="evenodd" clip-rule="evenodd" d="M50.0814 0.933174C77.3402 0.933174 99.4377 23.0307 99.4377 50.2896C99.4377 77.5484 77.3402 99.6459 50.0814 99.6459C22.8225 99.6459 0.724976 77.5484 0.724976 50.2896C0.724976 23.0307 22.8225 0.933174 50.0814 0.933174ZM38.0457 22.0659H62.1182C71.1581 22.0659 78.5506 29.3668 78.5506 38.2859V62.2935C78.5506 71.2146 71.1581 78.5133 62.1185 78.5133L38.0457 78.513C29.0058 78.513 21.6125 71.2144 21.6125 62.2932V38.2856C21.6125 29.3668 29.0058 22.0659 38.0457 22.0659ZM49.9283 35.0494C58.7126 35.0494 65.8409 42.178 65.8409 50.9624C65.8409 59.7479 58.7126 66.8753 49.9283 66.8753C41.1413 66.8753 34.0141 59.7479 34.0141 50.9624C34.0141 42.178 41.1416 35.0494 49.9283 35.0494ZM49.9283 40.4243C55.7453 40.4243 60.4666 45.1445 60.4666 50.9624C60.4666 56.7806 55.7453 61.5016 49.9283 61.5016C44.1091 61.5016 39.3887 56.7803 39.3887 50.9624C39.3887 45.1445 44.1091 40.4243 49.9283 40.4243ZM65.3233 32.8438C66.7504 32.8438 67.9074 34.0008 67.9074 35.4264C67.9074 36.8535 66.7504 38.0105 65.3233 38.0105C63.8974 38.0105 62.7407 36.8535 62.7407 35.4264C62.7407 34.0005 63.8977 32.8438 65.3233 32.8438ZM40.013 26.6767H60.153C67.7155 26.6767 73.9003 32.8311 73.9003 40.3518V60.5928C73.9003 68.1132 67.7155 74.2666 60.153 74.2666L40.013 74.2669C32.4505 74.2669 26.2645 68.1138 26.2645 60.5931V40.3515C26.2645 32.8311 32.4505 26.6767 40.013 26.6767Z" fill="url(#paint0_linear_8_7414)"/>
<defs>
<linearGradient id="paint0_linear_8_7414" x1="0.724976" y1="116.92" x2="113.751" y2="-9.43164" gradientUnits="userSpaceOnUse">
<stop stop-color="#F58529"/>
<stop offset="0.169" stop-color="#FEDA77"/>
<stop offset="0.478" stop-color="#DD2A7B"/>
<stop offset="0.78" stop-color="#8134AF"/>
<stop offset="1" stop-color="#515BD4"/>
</linearGradient>
</defs>
</svg>
