<svg width="140" height="42" viewBox="0 0 140 42" fill="none" xmlns="http://www.w3.org/2000/svg">
<path fill-rule="evenodd" clip-rule="evenodd" d="M138.589 22.6877C138.749 21.9249 138.941 21.4715 139.362 21.4715C139.905 21.4715 140.086 22.1866 139.964 23.1127C139.456 26.9608 137.949 28.4232 136.106 28.4232C135.243 28.4232 132.767 27.9845 131.91 24.0641C131.279 21.1701 131.434 15.8788 131.504 14.2611C131.506 14.2172 131.449 13.9916 131.328 14.2778L131.301 14.3401C130.952 15.163 130.073 17.2365 129.54 19.5253C128.702 23.1224 128.63 25.6257 128.671 26.0308C128.756 26.8618 127.808 26.9925 127.355 26.9925C126.643 26.9925 125.768 26.9306 125.059 25.6247C124.811 25.1681 124.488 23.7251 124.246 21.2841C123.93 18.0935 123.881 15.6872 123.862 14.7582L123.859 14.6532C123.851 14.2374 123.613 14.3022 123.403 14.695L123.371 14.7543C122.983 15.4755 122.211 16.9126 121.385 20.4637C120.994 22.144 120.936 24.2725 120.891 25.9573V25.9574V25.9578C120.877 26.4545 120.865 26.9126 120.845 27.3093C120.813 27.9728 120.573 28.2298 120.266 28.2946C119.823 28.3881 118.625 28.6029 117.451 28.1485C117.185 28.0458 116.821 27.8332 116.758 27.6637C116.655 27.3868 116.59 26.5081 116.549 25.4336C115.561 27.8741 114.342 28.4232 113.059 28.4232C111.826 28.4232 109.674 27.5314 109.231 24.6444C109.231 24.6444 108.967 25.2197 108.501 25.8852C106.436 28.835 102.368 29.5883 100.264 26.1093C100.161 25.9398 100.067 25.7564 99.9773 25.5667C99.232 27.2679 97.8412 28.4135 96.3874 28.4135C95.1454 28.4135 93.0506 27.5351 92.1213 24.8049C90.7831 20.8735 92.2095 15.0001 92.3358 14.4801L92.3404 14.461C92.4142 14.1556 92.2996 14.0706 91.9004 14.0978C90.6524 14.183 89.4831 14.1726 89.4831 14.1726C88.7939 16.4406 87.448 19.355 86.1922 21.5251C85.0398 23.5162 83.7883 25.2177 82.6775 26.5637C82.6915 27.5765 82.7078 28.5501 82.7227 29.4397C82.7336 30.0902 82.7438 30.6958 82.7518 31.2392C82.7991 34.4517 82.1541 37.7043 81.1687 39.2156C80.049 40.9325 78.2246 42.1594 76.0981 41.9832C74.0919 41.8172 71.4443 40.5504 71.6694 37.142C71.8459 34.4725 74.2434 32.1797 77.4015 29.1596L77.4146 29.1471C78.1327 28.4601 79.3025 27.3404 79.3025 27.3404L79.2423 25.5081C79.1689 25.621 79.0851 25.7466 78.9884 25.8852C76.9378 28.8395 72.8554 29.5883 70.7511 26.1093C70.6116 25.8787 70.4838 25.6355 70.3667 25.3807C69.3677 27.7275 67.9423 28.4085 66.5617 28.4085C65.3291 28.4085 63.1762 27.4339 62.8772 24.6444C62.8772 24.6444 62.7807 24.9724 62.1467 25.8852C60.0961 28.8395 56.0137 29.5883 53.9094 26.1093C53.4701 25.383 53.1299 24.5242 52.9001 23.5367C52.0996 25.9593 50.269 28.4217 48.4432 28.4217C45.7123 28.4217 44.1404 25.9094 43.7711 21.469C41.7078 26.6103 38.7439 28.6034 35.0441 28.4743C34.0945 28.4412 32.6055 28.1495 31.9128 27.8277C31.1082 27.4538 30.3321 27.0264 30.5451 26.2177C30.7642 25.3867 31.1479 24.7154 31.8186 24.1877C32.0769 23.9846 32.5076 24.0427 32.7897 24.2363C33.0174 24.3928 33.1883 24.5279 33.3514 24.6568L33.3515 24.6569C33.5645 24.8252 33.7642 24.9831 34.0599 25.1644C35.8515 26.2611 36.8582 25.1327 37.1255 24.0377C37.475 22.6054 36.9482 21.0956 35.3439 19.5068C34.9111 19.0782 34.4782 18.6669 34.0637 18.2731L34.0636 18.2729C33.8169 18.0386 33.5767 17.8104 33.347 17.5885C32.4636 19.1421 31.2341 21.2978 29.9678 23.4963C27.9365 27.0241 26.0417 28.4177 24.6975 28.4177C22.9405 28.4177 21.7109 27.1106 21.967 20.0584C22.0175 18.6668 22.0809 17.1448 22.1354 15.8355L22.1354 15.8354L22.1354 15.8353L22.1354 15.8352C22.1841 14.6656 22.2258 13.6657 22.2448 13.08C22.2539 12.7994 22.0652 12.8096 21.8999 12.9811C20.9544 13.9622 18.9439 16.7248 17.4016 22.3868C16.5585 25.4821 16.4297 26.6493 16.3375 27.4842C16.3214 27.6302 16.3064 27.766 16.2889 27.9003C16.191 28.6525 14.3042 28.3998 13.9598 28.3258C13.5897 28.246 13.3652 28.0528 13.171 27.7996C12.9768 27.5458 12.8198 27.1193 12.7228 26.5951C12.6256 26.0717 12.6 24.8747 12.6 23.8482L12.6829 10.3426C12.6829 9.90393 12.9094 9.68383 13.3628 9.68383C14.3145 9.68383 15.385 10.1482 15.7858 10.3753C16.0223 10.5091 16.1258 10.7048 16.1258 10.9072L16.0749 19.5397C16.0749 19.5397 16.6637 17.8911 16.9635 16.9863C19.3419 9.80772 21.859 9.68383 22.7314 9.68383C23.3143 9.68383 24.3207 10.2793 24.7923 10.5822C25.5684 11.0807 26.0314 11.6311 25.9963 12.5972C25.9707 13.3025 25.9435 14.0019 25.917 14.6837L25.917 14.6853L25.917 14.6856L25.917 14.6857L25.9169 14.6859C25.8338 16.8272 25.7574 18.7938 25.7574 20.217L25.7574 20.3021C25.7573 22.4542 25.7571 24.7194 26.4795 24.7194C27.3438 24.7194 28.4718 22.679 29.9444 20.0152L29.9445 20.015C30.032 19.8567 30.1207 19.6961 30.2107 19.5337C30.7886 18.4908 31.4708 17.146 31.9675 16.1472C31.9003 16.0665 31.8354 15.9862 31.7754 15.9077C30.9541 14.8329 30.7305 13.7984 31.1498 12.4038C31.6908 10.6039 33.5049 8.91784 35.7051 9.44578C37.0366 9.76509 37.0132 11.2128 36.4707 12.4783C35.7051 14.2648 34.8418 15.1524 34.8418 15.1524C36.3324 16.3033 37.6647 17.3534 38.3395 17.908C40.1713 19.4133 41.1882 21.1916 40.6904 23.5596C40.6904 23.5596 43.0085 21.6261 43.6667 18.0469C43.6655 17.8457 43.6645 17.6386 43.6645 17.4235C43.6645 15.4007 43.7178 8.84955 43.7178 8.84955C43.243 8.8347 42.6723 8.82001 42.092 8.80508L42.0919 8.80507L42.0917 8.80507C41.2105 8.78239 40.307 8.75913 39.683 8.73389C38.7834 8.69799 39.4857 5.77787 40.1364 5.77787C40.4866 5.77787 41.2598 5.81358 42.0328 5.84929L42.0329 5.84929C42.8058 5.885 43.5787 5.9207 43.9287 5.9207C43.9287 5.9207 43.9947 2.18548 44.122 0.910249C44.2066 0.0699811 44.6394 -0.130925 45.5935 0.0744679C46.2841 0.223029 46.8668 0.360623 47.518 0.648024L47.5399 0.657648C47.8105 0.776201 48.252 0.969696 48.222 1.33624C48.1857 1.78816 48.0297 6.06602 48.0297 6.06602C48.0297 6.06602 49.7688 6.20037 50.3935 6.21508C51.1364 6.23153 53.0105 6.33572 53.2756 6.45462C53.8607 6.71734 53.3146 8.84007 52.7477 8.87023C51.9278 8.914 51.2982 8.91499 50.6904 8.91595C50.4603 8.91631 50.2334 8.91667 50.0005 8.91934C49.6711 8.92333 47.97 8.95349 47.97 8.95349C47.9246 9.57465 47.6561 16.0194 47.6561 20.546C47.6561 23.9442 48.4064 25.5387 49.1943 25.5387C50.5406 25.5387 52.1865 22.7981 52.5592 20.4199C52.5528 19.5826 52.6024 18.6865 52.715 17.7298C53.1043 14.4191 53.8609 12.9235 54.7954 11.5745C56.2285 9.50561 58.104 9.00135 59.9114 9.56119C60.5824 9.76858 61.591 10.4842 62.2181 11.5124V10.7709C62.2181 10.4491 62.5427 10.0176 63.0045 9.98195C63.3545 9.95478 63.8103 10.0016 64.3382 10.129C64.8427 10.2512 65.927 10.5809 65.9359 11.2352C65.937 11.3252 65.9293 11.5449 65.9183 11.8609L65.9182 11.862L65.9182 11.8633L65.9182 11.8638L65.9181 11.8642L65.9181 11.8651L65.9181 11.8658C65.903 12.2978 65.8817 12.9085 65.8678 13.6132C65.8538 14.3303 65.8348 14.9509 65.8159 15.5714C65.7788 16.7902 65.7416 18.0084 65.7416 19.9557C65.7416 24.9939 66.4213 26.0961 67.6157 26.0961C68.55 26.0961 69.3763 24.5462 69.6637 23.0641C69.3973 21.5837 69.3612 19.8269 69.5567 17.7592C69.7664 15.5408 70.5067 13.2249 71.6371 11.5745C73.0597 9.49763 74.9457 9.00135 76.7531 9.56119C77.4241 9.76858 78.4327 10.4842 79.0598 11.5124C79.0598 11.5124 79.0598 10.9339 79.0574 10.8397C79.0454 10.3406 79.5048 9.91889 80.2673 9.9807C80.8715 10.0296 81.4539 10.1696 81.9465 10.372C82.5036 10.6009 82.7714 10.7818 82.778 11.2602C82.7791 11.3496 82.7715 11.5622 82.7605 11.8692C82.7453 12.2948 82.7235 12.9019 82.7095 13.6132C82.6846 14.8635 82.6285 18.3315 82.6419 22.7383C82.6428 23.0479 82.6445 23.3592 82.6467 23.6703C83.2341 22.8347 83.6891 22.0488 84.284 20.9882C85.3946 19.0085 86.4703 16.2706 86.9091 14.1743C86.9091 14.1743 85.5716 13.3672 85.7882 11.656C85.9249 10.5777 86.2849 9.97796 86.8138 9.46946C87.6998 8.61773 90.4769 8.40137 90.1782 11.068C90.1214 11.5765 90.0521 11.8649 90.0521 11.8649C91.2002 11.6874 92.4551 11.4563 93.3327 11.2415C94.5649 10.9401 95.422 11.1851 95.8243 11.6647C96.2629 12.1877 96.4378 12.7333 96.2225 13.7755C96.1322 14.2131 96.0432 14.6265 95.9576 15.0242L95.9574 15.0253L95.9574 15.0254C95.5649 16.8489 95.2436 18.3417 95.187 20.3182C95.0823 23.9794 95.9834 26.0961 97.2263 26.0961C98.0825 26.0961 98.8644 25.3176 99.2855 23.4178C98.937 21.734 98.873 19.7431 99.0691 17.7797C99.3374 15.0941 100.019 13.2249 101.15 11.5745C102.572 9.49763 104.458 9.0011 106.266 9.56119C106.937 9.76858 107.945 10.4842 108.572 11.5124C108.572 11.5124 108.57 11.0453 108.57 10.7993C108.57 10.3409 108.914 10.0079 109.401 9.97896C109.745 9.95852 110.185 10.0064 110.692 10.129C111.197 10.2509 112.281 10.5807 112.29 11.235C112.291 11.3253 112.283 11.5459 112.272 11.8632L112.272 11.8638C112.257 12.2959 112.236 12.9073 112.222 13.613C112.208 14.3297 112.189 14.9501 112.17 15.5703L112.17 15.5707L112.17 15.5715C112.133 16.7902 112.096 18.0084 112.096 19.9557C112.096 24.9939 112.659 26.0961 113.854 26.0961C115.047 26.0961 116.144 23.4594 116.482 21.5171C116.481 21.3043 116.481 21.1041 116.481 20.9204C116.481 17.171 116.557 11.9911 116.574 10.8226C116.576 10.6741 116.578 10.5904 116.578 10.5827C116.578 10.063 116.727 9.70651 117.339 9.70651C117.835 9.70651 119.002 10.0064 119.595 10.1856C119.727 10.2257 120.163 10.4471 120.16 11.1114C120.154 12.8722 120.147 17.5142 120.147 17.5142C120.147 17.5142 120.524 16.3504 121.067 14.63C121.734 12.5132 122.376 10.7275 122.93 10.064C123.57 9.2526 125.348 9.93459 125.933 10.3202C126.835 10.9144 127.008 11.6403 127.014 12.493C127.04 16.4772 127.234 18.5582 127.346 19.7621L127.353 19.8307L127.364 19.9545L127.376 20.0883C127.392 20.2613 127.479 20.2461 127.487 20.1721C127.649 18.7431 128.337 15.2247 130.097 10.7931C130.718 9.22973 131.962 9.7013 132.822 10.0273L132.831 10.0306C134.831 10.7886 135.036 11.5583 134.997 12.3362C134.803 16.1226 134.778 19.9288 134.93 21.9965C135.123 24.6259 135.874 25.9393 136.71 25.9393C137.458 25.9393 138.038 25.3406 138.589 22.6877ZM107.096 24.64C107.617 23.4689 108.037 21.8084 108.125 19.6843C108.302 15.3708 107.546 13.038 105.93 12.868C104.292 12.6959 103.303 14.6034 102.949 17.129C102.601 19.6083 102.623 22.5756 103.107 24.3521C103.996 27.6113 106.088 26.9074 107.096 24.64ZM79.4018 32.1881C79.3803 35.7235 78.8946 38.8232 77.8531 39.7235C76.3758 41 74.3902 40.0425 74.8014 37.4627C75.1651 35.1799 76.8856 32.8485 79.406 30C79.406 30 79.4112 30.6496 79.4018 32.1881ZM78.3469 24.6369C78.8324 23.538 79.2775 21.5931 79.3691 19.657C79.5966 14.8533 78.8011 12.8572 77.1878 12.8572C75.5285 12.8572 74.6046 15.0477 74.2235 17.409C73.9297 19.2289 73.7876 22.1171 74.3812 24.3488C75.2495 27.6149 77.3447 26.9058 78.3469 24.6369ZM62.285 19.6381C62.1867 21.6881 61.8324 23.4019 61.2638 24.6467C60.235 26.8998 58.1997 27.6141 57.3021 24.3587C56.655 22.0111 56.8753 18.8103 57.1445 17.0812C57.5439 14.5153 58.5442 12.6961 60.1058 12.8685C61.7099 13.0454 62.4897 15.3724 62.285 19.6381ZM0.17355 9.20042C1.05922 4.84155 3.8635 1.37141 6.41438 0.141538C7.48129 -0.37296 9.74205 0.611371 9.75799 1.54959C9.813 4.79556 9.80063 9.86903 9.79383 12.6587C9.79261 13.1564 9.79158 13.5814 9.79113 13.9103C9.79082 14.1319 9.79057 14.369 9.7903 14.6191C9.78769 17.0429 9.78378 20.678 9.71247 23.0508C9.64723 25.2223 9.28453 27.2219 8.24823 28.8868C7.38396 30.275 5.89099 31.1365 5.54129 30.7743C5.32651 30.552 5.45399 30.086 5.6381 29.4131C5.7221 29.1061 5.81788 28.756 5.89833 28.3663C6.15195 27.1388 6.29313 25.8966 6.29313 21.9629C6.29313 20.2831 6.31799 14.9229 6.33899 10.3971C6.35432 7.09064 6.3676 4.22957 6.3676 3.5745C6.3676 3.53611 6.36763 3.49849 6.36766 3.46169C6.36835 2.66685 6.3687 2.25259 6.03468 2.57472C4.15341 4.38886 2.65876 8.52344 3.00112 12.2237C3.14452 13.7742 3.58731 14.5747 3.89195 15.1254C4.15018 15.5922 4.30916 15.8796 4.10244 16.2923C3.7196 17.057 -0.94812 14.7218 0.17355 9.20042Z" fill="#262626"/>
</svg>
