<svg width="120" height="120" viewBox="0 0 120 120" fill="none" xmlns="http://www.w3.org/2000/svg">
<path d="M0 60C0 26.8629 26.8629 0 60 0V0C93.1371 0 120 26.8629 120 60V60C120 93.1371 93.1371 120 60 120V120C26.8629 120 0 93.1371 0 60V60Z" fill="url(#paint0_linear_18_1047)"/>
<path d="M23.6049 94.9074L28.7496 76.2255C25.5689 70.742 23.9004 64.532 23.9178 58.1836C23.9178 38.2909 40.186 22.1172 60.1564 22.1172C69.8548 22.1172 78.9622 25.8709 85.7928 32.6863C92.6408 39.5017 96.4124 48.5659 96.395 58.2009C96.395 78.0937 80.1268 94.2673 60.139 94.2673H60.1216C54.0558 94.2673 48.0942 92.7451 42.7931 89.8736L23.6049 94.9074ZM43.7143 83.3523L44.8093 84.0096C49.4325 86.7427 54.7336 88.1784 60.139 88.1957H60.1564C76.7549 88.1957 90.277 74.7551 90.277 58.2182C90.277 50.2092 87.1485 42.6846 81.4651 37.0108C75.7816 31.337 68.2036 28.2234 60.1564 28.2234C43.5579 28.2061 30.0358 41.6467 30.0358 58.1836C30.0358 63.8401 31.6174 69.3581 34.6416 74.1324L35.3542 75.2741L32.3126 86.3275L43.7143 83.3523Z" fill="white"/>
<path d="M24.8738 93.6446L29.8446 75.6027C26.7683 70.3268 25.1519 64.3244 25.1519 58.2009C25.1693 39.0001 40.864 23.3799 60.1565 23.3799C69.5246 23.3799 78.3019 27.0125 84.9065 33.5858C91.5111 40.159 95.1437 48.9119 95.1437 58.2182C95.1437 77.419 79.4316 93.0392 60.1565 93.0392H60.1391C54.2818 93.0392 48.5288 91.5688 43.4189 88.8012L24.8738 93.6446Z" fill="url(#paint1_linear_18_1047)"/>
<path d="M23.6049 94.9074L28.7496 76.2255C25.5689 70.742 23.9004 64.532 23.9178 58.1836C23.9178 38.2909 40.186 22.1172 60.1564 22.1172C69.8548 22.1172 78.9622 25.8709 85.7928 32.6863C92.6408 39.5017 96.4124 48.5659 96.395 58.2009C96.395 78.0937 80.1268 94.2673 60.139 94.2673H60.1216C54.0558 94.2673 48.0942 92.7451 42.7931 89.8736L23.6049 94.9074ZM43.7143 83.3523L44.8093 84.0096C49.4325 86.7427 54.7336 88.1784 60.139 88.1957H60.1564C76.7549 88.1957 90.277 74.7551 90.277 58.2182C90.277 50.2092 87.1485 42.6846 81.4651 37.0108C75.7816 31.337 68.2036 28.2234 60.1564 28.2234C43.5579 28.2061 30.0358 41.6467 30.0358 58.1836C30.0358 63.8401 31.6174 69.3581 34.6416 74.1324L35.3542 75.2741L32.3126 86.3275L43.7143 83.3523Z" fill="url(#paint2_linear_18_1047)"/>
<path fill-rule="evenodd" clip-rule="evenodd" d="M51.1008 43.0997C50.423 41.5948 49.7104 41.5602 49.0673 41.5429C48.5459 41.5256 47.9376 41.5256 47.3292 41.5256C46.7209 41.5256 45.7476 41.7504 44.9133 42.6499C44.0791 43.5494 41.7501 45.729 41.7501 50.1746C41.7501 54.6029 45.0002 58.8928 45.4521 59.4982C45.904 60.1037 51.7265 69.4965 60.9209 73.1118C68.5684 76.1217 70.1326 75.5162 71.7838 75.3605C73.435 75.2049 77.137 73.181 77.9018 71.0706C78.6491 68.9603 78.6491 67.1613 78.4232 66.7807C78.1972 66.4002 77.5889 66.1753 76.6851 65.7255C75.7813 65.2758 71.3319 63.0962 70.4976 62.7849C69.6634 62.4908 69.055 62.3351 68.4641 63.2346C67.8558 64.1341 66.1177 66.158 65.5963 66.7634C65.0749 67.3689 64.5361 67.438 63.6323 66.9883C62.7285 66.5385 59.8085 65.5872 56.3498 62.5081C53.6558 60.121 51.8308 57.163 51.3094 56.2635C50.788 55.364 51.2573 54.8797 51.7092 54.4299C52.1089 54.0321 52.613 53.3747 53.0649 52.8558C53.5167 52.3369 53.6732 51.9563 53.9686 51.3509C54.2641 50.7454 54.1251 50.2265 53.8991 49.7767C53.6732 49.3443 51.9003 44.8814 51.1008 43.0997Z" fill="white"/>
<defs>
<linearGradient id="paint0_linear_18_1047" x1="59.9969" y1="119.994" x2="59.9969" y2="-0.00419849" gradientUnits="userSpaceOnUse">
<stop stop-color="#20B038"/>
<stop offset="1" stop-color="#60D66A"/>
</linearGradient>
<linearGradient id="paint1_linear_18_1047" x1="60.0069" y1="93.6411" x2="60.0069" y2="23.3775" gradientUnits="userSpaceOnUse">
<stop stop-color="#20B038"/>
<stop offset="1" stop-color="#60D66A"/>
</linearGradient>
<linearGradient id="paint2_linear_18_1047" x1="60.0071" y1="94.9005" x2="60.0071" y2="22.1172" gradientUnits="userSpaceOnUse">
<stop stop-color="#F9F9F9"/>
<stop offset="1" stop-color="white"/>
</linearGradient>
</defs>
</svg>
